<?xml version="1.0" encoding="utf-8"?>
<!-- Generator: Adobe Illustrator 19.2.0, SVG Export Plug-In . SVG Version: 6.00 Build 0)  -->
<svg version="1.1" id="Layer_1" xmlns="http://www.w3.org/2000/svg" xmlns:xlink="http://www.w3.org/1999/xlink" x="0px" y="0px"
	 viewBox="0 0 274.2 135" style="enable-background:new 0 0 274.2 135;" xml:space="preserve">
<style type="text/css">
	.st0{fill:#FFFFFF;}
	.st1{display:none;}
	.st2{display:inline;opacity:0.6;enable-background:new    ;}
	.st3{clip-path:url(#SVGID_2_);}
	.st4{display:none;fill:none;stroke:#003D79;}
	.st5{fill:none;stroke:#C1BFBF;}
	.st6{fill:none;stroke:#5A0077;stroke-width:1.5;}
	.st7{fill:#003D79;stroke:#5A0077;stroke-width:1.5;}
	.st8{fill:#003D79;}
	.st9{font-family:'DevinneSwash';}
	.st10{font-size:30.4338px;}
	.st11{fill:none;stroke:#8C8C8C;stroke-width:0.5;}
</style>
<rect class="st0" width="274.2" height="135"/>
<g id="Layer_2_1_" class="st1">
	<g class="st2">
		<g>
			<defs>
				<rect id="SVGID_1_" x="-342.1" y="275.9" width="251.7" height="86.1"/>
			</defs>
			<clipPath id="SVGID_2_">
				<use xlink:href="#SVGID_1_"  style="overflow:visible;"/>
			</clipPath>
			<g transform="matrix(1 0 -3.725290e-09 1 3.051758e-05 -1.525879e-05)" class="st3">
			</g>
		</g>
	</g>
</g>
<g id="Layer_1_1_">
	<rect x="10.7" y="-0.2" class="st4" width="252" height="144"/>
	<line class="st5" x1="11" y1="62" x2="262.7" y2="62"/>
	<line class="st5" x1="11" y1="66" x2="262.7" y2="66"/>
	<line class="st5" x1="11" y1="70" x2="262.7" y2="70"/>
	<line class="st5" x1="11" y1="74" x2="262.7" y2="74"/>
	<line class="st5" x1="11" y1="78" x2="262.7" y2="78"/>
	<g id="Layer_2">
		<g>
			<g>
				<line class="st6" x1="12" y1="66.5" x2="12" y2="70.9"/>
				<line class="st6" x1="12.8" y1="64.6" x2="12.8" y2="75.6"/>
				<line class="st6" x1="13.9" y1="63.6" x2="13.9" y2="71.4"/>
				<line class="st6" x1="14.8" y1="64.1" x2="14.8" y2="70.4"/>
				<line class="st6" x1="15.8" y1="65" x2="15.8" y2="72"/>
				<line class="st6" x1="16.7" y1="66" x2="16.7" y2="74.4"/>
				<line class="st6" x1="17.5" y1="54.2" x2="17.5" y2="88.7"/>
				<path class="st7" d="M18.5,44.1"/>
				<path class="st7" d="M18.7,93.1"/>
				<line class="st6" x1="18.5" y1="44.1" x2="18.5" y2="93.1"/>
				<line class="st6" x1="19.5" y1="55.9" x2="19.5" y2="87.5"/>
				<line class="st6" x1="20.5" y1="64.2" x2="20.5" y2="77"/>
				<line class="st6" x1="21.3" y1="60.4" x2="21.3" y2="80.9"/>
				<line class="st6" x1="22.3" y1="53.2" x2="22.3" y2="72.5"/>
				<line class="st6" x1="23.4" y1="48.1" x2="23.4" y2="71.2"/>
				<line class="st6" x1="24.4" y1="54.9" x2="24.4" y2="78.7"/>
				<line class="st6" x1="25.2" y1="56.7" x2="25.2" y2="74.7"/>
				<line class="st6" x1="26.2" y1="50.7" x2="26.2" y2="72.5"/>
				<line class="st6" x1="27.2" y1="64.6" x2="27.2" y2="74.4"/>
				<line class="st6" x1="28.2" y1="66.5" x2="28.2" y2="77"/>
				<line class="st6" x1="29" y1="69.4" x2="29" y2="74"/>
				<line class="st6" x1="30.1" y1="61.7" x2="30.1" y2="72.5"/>
				<line class="st6" x1="31" y1="68.3" x2="31" y2="71.6"/>
				<line class="st6" x1="31.9" y1="66.4" x2="31.9" y2="77.4"/>
				<line class="st6" x1="33" y1="64.6" x2="33" y2="75.1"/>
				<line class="st6" x1="33.8" y1="67.6" x2="33.8" y2="74.2"/>
				<line class="st6" x1="34.8" y1="66.5" x2="34.8" y2="73.1"/>
				<line class="st6" x1="35.7" y1="59.2" x2="35.7" y2="75.5"/>
				<line class="st6" x1="36.7" y1="65" x2="36.7" y2="74.5"/>
				<line class="st6" x1="37.6" y1="62.2" x2="37.6" y2="69.5"/>
				<path class="st7" d="M38.5,43.2"/>
				<path class="st7" d="M38.5,90.5"/>
				<path class="st7" d="M38.5,43.2"/>
				<line class="st6" x1="38.5" y1="90.5" x2="38.5" y2="43.2"/>
				<line class="st6" x1="39.5" y1="51.3" x2="39.5" y2="76.1"/>
				<line class="st6" x1="40.4" y1="44.5" x2="40.4" y2="88.8"/>
				<line class="st6" x1="41.4" y1="49.3" x2="41.4" y2="98"/>
				<line class="st6" x1="42.4" y1="59.8" x2="42.4" y2="75.5"/>
				<line class="st6" x1="43.4" y1="47.4" x2="43.4" y2="72.5"/>
				<line class="st6" x1="44.3" y1="57.4" x2="44.3" y2="87.1"/>
				<line class="st6" x1="45.3" y1="59.1" x2="45.3" y2="80.4"/>
				<line class="st6" x1="46.2" y1="55.2" x2="46.2" y2="75.6"/>
				<line class="st6" x1="47.2" y1="62.2" x2="47.2" y2="77.6"/>
				<line class="st6" x1="48.1" y1="65.5" x2="48.1" y2="73.7"/>
				<line class="st6" x1="49" y1="63.6" x2="49" y2="70.7"/>
				<line class="st6" x1="50" y1="67.3" x2="50" y2="74.6"/>
				<line class="st6" x1="50.8" y1="68.3" x2="50.8" y2="72.7"/>
				<line class="st6" x1="51.8" y1="66.6" x2="51.8" y2="70"/>
			</g>
		</g>
	</g>
	<text transform="matrix(1 0 0 1 54.5137 79.8096)" class="st8 st9 st10">CAE SOUND</text>
	<text transform="matrix(1 0 0 1 54.5137 79.8096)" class="st11 st9 st10">CAE SOUND</text>
</g>
</svg>
