<?xml version="1.0" encoding="utf-8"?>
<!-- Generator: Adobe Illustrator 19.2.0, SVG Export Plug-In . SVG Version: 6.00 Build 0)  -->
<svg version="1.1" id="Layer_1" xmlns="http://www.w3.org/2000/svg" xmlns:xlink="http://www.w3.org/1999/xlink" x="0px" y="0px"
	 viewBox="0 0 1071.4 1000" style="enable-background:new 0 0 1071.4 1000;" xml:space="preserve">
<path d="M535.7,375c44.3,0,82.1,15.7,113.6,47.2c31.4,31.4,47.2,69.3,47.2,113.6s-15.7,82.1-47.2,113.6
	c-31.4,31.4-69.3,47.2-113.6,47.2s-82.1-15.7-113.6-47.2S375,580,375,535.7c0-44.3,15.7-82.1,47.2-113.6S491.4,375,535.7,375z
	 M928.5,142.9c39.4,0,73.1,13.9,101,41.8c27.9,27.9,41.8,61.6,41.8,101v500c0,39.4-13.9,73.1-41.8,101
	c-27.9,27.9-61.6,41.8-101,41.8H142.8c-39.4,0-73.1-14-101-41.8C14,858.8,0,825.2,0,785.7v-500c0-39.4,13.9-73.1,41.8-101
	s61.6-41.9,101-41.8h125L296.3,67c7.1-18.2,20-33.9,38.8-47.2c18.8-13.2,38-19.8,57.8-19.8h285.7c19.7,0,39,6.6,57.8,19.8
	S768,48.8,775.1,67l28.5,75.9L928.5,142.9L928.5,142.9z M535.7,785.7c68.8,0,127.7-24.5,176.6-73.4c48.9-48.9,73.4-107.8,73.4-176.6
	c0-68.8-24.5-127.7-73.4-176.6c-48.9-48.9-107.8-73.4-176.6-73.4S408,310.2,359.1,359.1s-73.4,107.8-73.4,176.6
	s24.5,127.7,73.4,176.6S466.9,785.7,535.7,785.7z"/>
</svg>
