<!-- Generator: Adobe Illustrator 18.1.0, SVG Export Plug-In  -->
<svg version="1.1"
	 xmlns="http://www.w3.org/2000/svg" xmlns:xlink="http://www.w3.org/1999/xlink" xmlns:a="http://ns.adobe.com/AdobeSVGViewerExtensions/3.0/"
	 x="0px" y="0px" width="418px" height="418px" viewBox="0 0 418 418" enable-background="new 0 0 418 418" xml:space="preserve">
<defs>
</defs>
<g>
	<path d="M200.375,0h85c-0.382,3.76,0.087,7.167,5.059,5.897c3.771-0.963,5.39,1.104,7.177,3.543
		c1.259,1.719,2.828,3.237,3.913,5.051c3.697,6.183,8.343,12.095,10.55,18.794c2.49,7.559,2.827,15.845,3.928,23.838
		c1.563,11.347,2.44,23.31-3.518,33.116c-4.276,7.039-4.017,13.729-4.202,20.788c-0.28,10.715-1.917,20.978-6.561,30.761
		c-1.513,3.188-0.538,6.213,3.395,7.515c4.888,1.618,11.229,1.994,14.281,5.337c5.952,6.519,13.888,9.848,20.575,15.009
		c8.256,6.373,7.828,13.597,6.785,21.968c-0.977,7.846-2.804,15.817-2.183,23.567c0.656,8.19,3.958,16.142,5.73,24.279
		c1.183,5.432,1.469,11.056,2.597,16.503c1.245,6.007,2.86,11.949,4.563,17.847c1.52,5.262,3.435,10.408,5.069,15.638
		c1.047,3.35,1.91,6.758,2.837,10.146c0.852,3.112,1.633,6.245,2.54,9.34c0.354,1.208,1.339,2.322,1.399,3.511
		c0.426,8.412,3.622,15.333,9.879,21.117c1.751,1.619,2.754,4.681,2.999,7.189c1.146,11.71,2.055,23.45,2.735,35.197
		c0.292,5.056-0.218,10.156-0.277,15.238c-0.019,1.675-0.404,3.873,0.469,4.942c4.653,5.701,9.678,11.098,14.508,16.657
		c0.954,1.098,1.621,2.446,2.766,4.211c-42.655,0-84.31,0.001-125.964-0.001c-6.417,0-6.965-0.489-6.099-6.775
		c0.525-3.806-1.323-6.094-3.937-8.338c-0.593,5.022-1.147,9.716-1.724,14.604h-7.776c1.759-6.391,3.387-12.309,5.016-18.227
		l-1.789-0.602c-0.928,2.278-2.11,4.49-2.728,6.849c-1.066,4.071-1.782,8.233-2.672,12.486c-7.991,0-15.48,0.047-22.968-0.055
		c-0.955-0.013-2.298-0.569-2.979-1.239c-2.951-2.901-5.822-5.894-8.569-8.989c-4.366-4.92-10.98-6.874-17.146-5.104
		c2.049,3.036,4.17,6.178,6.291,9.32c-0.386,0.31-0.241,0.193-0.627,0.503c-1.968-2.075-3.935-4.149-6.213-6.551
		c-0.638,1.575-0.96,2.37-1.741,4.3c-4.091-3.732-8.207-6.618-11.186-10.4c-4.879-6.194-15.077-8.452-22.081-4.52
		c-2.108,1.184-4.454,1.881-6.87,1.804c-4.684-0.151-9.366-1.019-12.882-1.454c-2.196,4.427-3.708,7.477-5.206,10.497
		c-0.579-0.079-0.566-0.078-1.145-0.157c-0.172-0.897-0.343-1.793-0.517-2.698c-1.486,0.444-2.935,0.878-4.599,1.375
		c-0.164-2.224-0.289-3.926-0.421-5.711c-13.755,3.628-18.27,8.351-17.879,18.724H1.696V261.534
		c6.467-0.615,9.276-4.357,9.262-10.296c6.739-1.009,10.288-2.962,10.317-7.154c0.072-10.462,6.703-17.568,13.176-23.732
		c8.503-8.097,12.726-17.918,14.647-28.576c1.941-10.765,6.933-20.058,10.645-30.002c3.24-8.679,10.285-11.346,17.646-13.696
		c6.077-1.939,12.556-2.594,18.806-4.032c2.136-0.491,4.172-1.328,6.134-2.304c9.705-4.829,21.006-4.721,30.571-10.305
		c4.404-2.571,9.867-3.342,14.863-4.883c4.877-1.504,9.726-3.134,14.672-4.367c4.613-1.15,9.342-1.828,14.012-2.755
		c3.015-0.599,3.834-2.298,2.465-5.084c-0.806-1.642-1.084-3.815-2.332-4.924c-8.104-7.194-4.068-16.454-4.627-24.92
		c1.432,5.612,1.125,11.769,3.189,16.988c3.694,9.338,6.767,11.434,11.002,11.285c0.687-2.842,1.425-5.471,1.926-8.143
		c0.268-1.427,0.209-2.934,0.156-4.399c-0.106-2.931-1.024-6.041-0.332-8.752c1.802-7.06,1.624-7.871-6.006-9.909
		c2.265-1.519,4.018-2.694,6.433-4.314c-2.535-2.597-4.761-4.878-7.735-7.924c-1.836,4.484-3.139,7.667-4.554,11.121
		c-0.315-3.847-0.594-7.253-0.874-10.658c-0.712-0.011-0.459-0.007-1.171-0.017c-0.48,4.303-0.96,8.607-1.44,12.91
		c-0.402-0.043-0.805-0.087-1.207-0.13c0-3.631-0.107-7.265,0.026-10.891c0.184-5.043,1.378-9.443,6.702-11.807
		c1.505-0.668,3.02-2.823,3.283-4.492c0.719-4.571,0.785-9.246,1.089-13.881c0.583-8.901,0.92-17.868,7.736-24.834
		c1.722-1.76,3.574-3.446,5.001-5.429C197.613,7.845,201.86,5.217,200.375,0z M299.743,85.113c-0.5,1.502-0.787,2.974-1.451,4.25
		c-1.987,3.818-5.126,1.827-7.298,0.696c-2.211-1.152-3.008-3.992-0.629-5.858c5.636-4.421,8.954-11.73,16.991-13.291
		c1.656-0.322,4.122-2.759,4.144-4.252c0.275-18.344,1.143-37.142-17.739-48.372c-3.735-2.221-8.732-5.241-12.217-4.331
		c-6.467,1.689-11.347-1.177-16.803-2.599c-5.297-1.38-10.309-3.731-16.123-1.751c-5.295,1.803-10.843,3.767-16.319,3.892
		c-5.807,0.132-9.645,3.088-11.234,7.255c-2.699,7.076-3.578,14.829-5.491,22.227c-2.968,11.477-6.203,22.885-9.246,34.343
		c-2.333,8.785-6.221,17.784,2.772,25.357c0.496,0.418,1.267,0.949,1.276,1.439c0.11,6.11-0.726,12.693,7.951,13.883
		c0.183,4.635,5.293,3.487,7.317,6.296c-2.245,3.938-0.263,6.327,3.223,7.984c5.792-5.101,11.765-8.855,20.166-7.466
		c3.629,0.6,7.61-0.93,11.497-1.501c-1.345-3.135-2.245-5.235-3.124-7.284c3.449,0.885,5.868,1.574,8.319,2.114
		c2.088,0.46,4.605,0.148,6.253,1.221c6.151,4.004,13.955,5.506,18.434,12.06c2.089,3.057,4.273,6.048,6.882,9.729
		c4.485-7.39,7.76-15.045,7.506-23.67c-0.253-8.595-1.579-17.162-1.744-25.755C302.999,88.774,304.143,86.135,299.743,85.113z
		 M182.079,327.987c1.5-2.847,2.19-4.508,3.18-5.966c2.481-3.654,5.807-6.912,7.512-10.879c3.603-8.38,6.597-17.042,9.46-25.714
		c4.984-15.091,9.683-30.276,14.482-45.428c0.186-0.588,0.37-1.298,0.212-1.853c-1.451-5.102-2.795-10.246-4.528-15.255
		c-2.41-6.967-0.402-10.73,6.717-13.075c4.285-1.411,8.317-3.59,12.55-5.463c7.622,7.229,15.602,14.796,23.677,22.454
		c12.593-11.72,6.958-27.825,10.448-41.788c-15.852,1.401-26.776,12.088-39.4,18.117c-1.758-2.13-3.143-3.63-4.326-5.274
		c-4.693-6.524-13-8.738-17.743-15.438c-4.533-6.404-12.533-10.356-13.476-19.504c0.901-0.098,1.791-0.194,3.65-0.396
		c-3.886-2.515-6.832-4.421-9.809-6.347c-0.497,0.491-0.409,0.404-0.907,0.895c1.037,1.598,2.135,3.162,3.069,4.818
		c0.47,0.833,1.155,2.357,0.83,2.7c-2.988,3.143,0.092,5.367,1.06,7.841c0.614,1.57,1.554,3.013,2.372,4.505
		c-0.657,0.451-0.448,0.307-1.105,0.758c-10.852-12.291-9.08-27.175-8.457-42.154c-2.206,4.211-4.208,8.5-5.075,13.007
		c-2.847,14.802,0.811,29.05,4.39,43.262c1.091,4.334,3.118,8.703,3.02,13.018c-0.358,15.765-1.432,31.514-2.245,47.447
		c-2.717-0.602-4.718-1.046-8.273-1.834c6.487,5.273,2.768,10.337,3.226,15.083c-4.299,0.8-7.941,1.478-11.584,2.156
		c0.041,0.263,0.082,0.525,0.123,0.788c3.732-0.44,7.465-0.88,10.4-1.226c-3.686,10.144-2.362,21.081-4.21,31.542
		c-1.303-0.744-2.299-1.313-3.781-2.159c0.909,3.056,1.559,5.239,2.208,7.422c-0.587-0.098-1.175-0.197-1.762-0.295
		c-0.375,1.051-0.958,2.082-1.064,3.16c-0.094,0.959,0.34,1.971,0.542,2.959c-1.21,0.014-2.499,0.307-3.616-0.009
		c-3.294-0.932-6.451-2.578-9.79-3.071c-4.934-0.729-10.101-1.89-15.97,1.242c7.234,1.152,13.352,1.661,19.204,3.19
		c5.83,1.524,11.391,4.072,17.156,6.203c1.535-5.256,3.505-11.072,4.895-17.023c1.357-5.811,2.294-11.738,3.097-17.657
		c0.792-5.832,1.186-11.718,1.754-17.581c0.714,31.471-8.431,61.206-15.966,91.437c3.062,0.492,5.632,0.904,8.247,1.324
		c3.835-10.964,7.547-21.577,11.439-32.703C186.099,326.083,184.825,326.687,182.079,327.987z M225.628,348.997
		c-2.306,0-3.969,0.227-5.546-0.043c-4.423-0.758-6.677,0.664-7.248,5.42c-0.499,4.163-1.938,8.213-2.982,12.393
		c-3.689-0.581-7.005-1.103-10.294-1.621c-0.666,9.656-1.482,18.916-1.805,28.193c-0.07,2.02,1.893,5.952,2.466,5.869
		c6.035-0.874,12.182-1.855,17.829-4.024c1.809-0.695,2.233-4.998,3.261-7.578c2.609-0.691,5.339-1.414,8.07-2.138
		c0.37,1.515,1.516,2.698,2.322,2.499c4.455-1.098,9.018-2.109,13.171-3.98c3.522-1.587,7.006-3.851,9.654-6.629
		c3.181-3.337,5.457-7.535,8.811-12.344c-0.959-5.103-5.53-6.926-10.987-3.009c-1.662,1.193-3.689,2.052-5.677,2.587
		c-5.718,1.541-12.658-1.636-17.026,5.589c-1.282,2.121-6.021,2.152-8.864,3.043c-1.927-2.152-3.538-3.951-5.255-5.869
		c0.346-1.564,0.742-3.355,1.443-6.526c0.364,2.816,0.536,4.148,0.91,7.033C222.928,361.753,223.595,355.511,225.628,348.997z
		 M236.349,337.416c0.33-1.173,1.259-3.527,1.604-5.964c0.347-2.449,0.182-4.983,0.115-7.476c-0.104-3.821-0.491-7.64-0.454-11.457
		c0.253-25.966,1.735-51.792,7.385-77.28c1.439-6.493,1.788-13.56-3.884-18.845c-3.835,0.961-4.494,3.505-4.518,6.831
		c-0.026,3.631-0.536,7.274-1.051,10.881c-0.487,3.414-2.029,6.848-1.774,10.171c2.149,28.046-1.561,55.776-4.168,83.563
		c-0.977,10.415-2.276,20.802-3.589,31.181c-0.445,3.515,1.566,5.161,4.303,5.325c2.208,0.132,5.203-0.145,4.819-4.102
		c-0.123-1.265,1.319-2.605,1.634-4.004c1-4.44,2.074-8.896,2.53-13.406C239.443,341.421,237.724,339.82,236.349,337.416z
		 M248.127,148.628c6.231-3.621,11.63-0.135,17.263,0.618c4.427,0.592,9.027,3.201,13.566,0.155
		c-3.117-8.601-9.79-12.499-17.367-10.952c-3.968,0.81-8.151,0.511-12.207,0.974c-1.99,0.227-3.912,1.051-5.865,1.604
		c0.898,1.586,1.774,3.184,2.702,4.751C246.718,146.624,247.308,147.414,248.127,148.628z M129.642,328.754
		c-3.346,4.359-4.059,4.298-6.583-0.928l0.532,4.731c17.494,3.292,42.385,1.786,50-6.255c-13.544,4.062-13.544,4.062-16.1,2.847
		c-1.612,1.138-2.51,2.282-3.533,2.409c-5.751,0.715-11.538,1.131-17.301,1.755c-4.346,0.47-5.877-1.608-4.88-5.534
		c0.913-3.594-0.146-5.291-4.859-5.364C127.937,324.788,128.754,326.688,129.642,328.754z M310.006,87.353
		c-0.306-3.445-0.167-7.423-0.751-7.532c-3.074-0.575-6.311-0.276-9.501-0.23c-0.221,0.843-0.197,0.753-0.418,1.596
		C302.289,82.894,305.244,84.602,310.006,87.353z M134.359,304.035c-2.915,0.946-5.344,1.71-7.752,2.532
		c-0.563,0.192-1.057,0.584-1.583,0.883c0.247,0.425,0.433,1.167,0.75,1.228c3.87,0.745,7.76,1.401,11.299-1.173
		C135.763,305.831,134.729,304.509,134.359,304.035z M180.158,61.041c-1.634,3.535-0.931,5.06,3.576,7.72
		c0.606,0.358,1.664-0.049,2.512-0.101c-1.053-2.061-1.953-4.225-3.235-6.133C182.488,61.747,181.139,61.522,180.158,61.041z
		 M153.339,326.166c-5.358-0.707-10.717-1.415-16.628-2.195c0.653,2.632,0.962,3.88,1.314,5.3
		C142.239,320.717,148.309,330.584,153.339,326.166z M271.519,371.984c-0.626-0.178-1.251-0.355-1.877-0.533
		c-2.556,3.889-5.112,7.778-7.669,11.667c2.883-2.148,5.393-4.258,7.538-6.691C270.538,375.261,270.871,373.484,271.519,371.984z
		 M151.216,268.814c0.099,0.579,0.197,1.157,0.296,1.736c3.354,0.727,6.765,1.741,9.095-2.85
		C157.477,268.072,154.347,268.443,151.216,268.814z"/>
	<path fill="#EEEEEE" d="M199.489,0c0.3,0,0.573,0.206,0.638,0.499c1.085,4.89-2.967,7.456-5.322,10.728
		c-1.427,1.983-3.279,3.669-5.001,5.429c-6.816,6.966-7.152,15.934-7.736,24.834c-0.304,4.635-0.37,9.31-1.089,13.881
		c-0.262,1.669-1.777,3.824-3.283,4.492c-5.324,2.364-6.518,6.764-6.702,11.807c-0.132,3.626-0.026,7.26-0.026,10.891
		c0.402,0.043,0.805,0.087,1.207,0.13c0.231-2.074,0.463-4.147,0.694-6.22c1.5,0.02,0.966,0.013,2.467,0.032l0.103,1.254
		c0.055,0.668,0.991,0.819,1.251,0.185c0.958-2.34,1.938-4.733,3.147-7.685c0.178-0.434,0.748-0.542,1.075-0.206l6.485,6.643
		c0.288,0.295,0.235,0.778-0.103,1.005l-4.613,3.094c-0.444,0.298-0.326,1.007,0.207,1.159c6.273,1.79,6.32,2.922,4.633,9.531
		c-0.692,2.711,0.226,5.821,0.332,8.752c0.053,1.466,0.112,2.972-0.156,4.399c-0.473,2.517-1.154,4.994-1.806,7.648
		c-0.071,0.289-0.33,0.505-0.628,0.502c-3.977-0.038-6.95-2.331-10.495-11.292c-1.28-3.234-1.648-6.829-2.084-10.431
		c-0.094-0.779-1.234-0.756-1.296,0.026c-0.519,6.471-1.22,12.978,4.818,18.337c1.249,1.108,1.526,3.282,2.332,4.924
		c1.369,2.786,0.55,4.485-2.465,5.084c-4.67,0.927-9.399,1.605-14.012,2.755c-4.946,1.233-9.795,2.863-14.672,4.367
		c-4.997,1.541-10.459,2.312-14.863,4.883c-9.53,5.564-20.783,5.478-30.464,10.252c-2.227,1.098-4.551,1.989-6.977,2.523
		c-6.022,1.325-12.232,2.003-18.071,3.866c-7.361,2.349-14.406,5.016-17.646,13.696c-3.712,9.944-8.705,19.238-10.645,30.002
		c-1.921,10.658-6.144,20.479-14.647,28.576c-6.474,6.165-13.105,13.27-13.176,23.732c-0.028,4.079-3.388,6.037-9.776,7.07
		c-0.309,0.05-0.539,0.316-0.548,0.629c-0.153,5.446-2.814,8.931-8.677,9.686c-0.326,0.042-0.578,0.312-0.578,0.641v153.881
		c0,0.36,0.292,0.651,0.651,0.651h114.969c0.365,0,0.653-0.305,0.646-0.67c-0.168-9.716,4.265-14.325,17.125-17.847
		c0.395-0.108,0.8,0.173,0.83,0.581c0.095,1.29,0.19,2.582,0.303,4.111c0.031,0.415,0.441,0.697,0.84,0.578
		c1.098-0.328,2.114-0.632,3.128-0.935c0.37-0.11,0.754,0.125,0.827,0.504c0.006,0.031,0.012,0.061,0.018,0.091
		c1.197,0.163,1.17,0.159,2.367,0.322c1.189-2.397,2.463-4.966,4.138-8.343c0.124-0.249,0.388-0.401,0.664-0.366
		c3.459,0.45,7.942,1.252,12.428,1.396c2.417,0.078,4.762-0.62,6.87-1.804c7.004-3.932,17.202-1.675,22.081,4.52
		c2.811,3.569,6.635,6.341,10.495,9.778c0.337,0.3,0.871,0.176,1.04-0.241c0.403-0.996,0.679-1.677,1.011-2.497
		c0.178-0.439,0.755-0.544,1.081-0.2c0.035,0.036,0.069,0.073,0.103,0.109c1.007-0.814,0.628-0.507,1.635-1.321l-1.373-2.034
		c-0.254-0.377-0.059-0.897,0.381-0.997c5.902-1.343,12.092,0.653,16.247,5.335c2.689,3.03,5.497,5.962,8.382,8.806
		c0.782,0.771,2.328,1.411,3.426,1.426c7.233,0.096,14.473,0.054,22.171,0.052c0.309,0,0.581-0.219,0.644-0.522
		c0.84-4.072,1.541-8.06,2.563-11.964c0.567-2.166,1.61-4.208,2.496-6.292c0.133-0.314,0.482-0.473,0.805-0.365l0.633,0.213
		c0.327,0.11,0.512,0.457,0.42,0.79c-1.504,5.464-3.011,10.941-4.625,16.804c-0.114,0.415,0.196,0.83,0.626,0.83h6.343
		c0.33,0,0.608-0.25,0.647-0.578c0.504-4.271,0.992-8.409,1.506-12.765c0.063-0.533,0.713-0.775,1.101-0.405
		c2.091,1.99,3.443,4.157,2.984,7.481c-0.867,6.286-0.319,6.774,6.099,6.775c41.27,0.002,82.54,0.001,124.784,0.001
		c0.509,0,0.82-0.563,0.553-0.997c-0.791-1.29-1.372-2.333-2.138-3.214c-4.831-5.559-9.855-10.955-14.508-16.657
		c-0.873-1.069-0.488-3.267-0.469-4.942c0.059-5.081,0.57-10.181,0.277-15.238c-0.68-11.747-1.589-23.486-2.735-35.197
		c-0.245-2.508-1.248-5.57-2.999-7.189c-6.256-5.784-9.453-12.706-9.879-21.117c-0.06-1.189-1.045-2.303-1.399-3.511
		c-0.907-3.096-1.688-6.228-2.54-9.34c-0.927-3.387-1.791-6.795-2.837-10.146c-1.634-5.23-3.55-10.377-5.069-15.638
		c-1.703-5.898-3.319-11.84-4.563-17.847c-1.129-5.447-1.414-11.071-2.597-16.503c-1.772-8.137-5.074-16.089-5.73-24.279
		c-0.621-7.75,1.206-15.721,2.183-23.567c1.043-8.371,1.471-15.594-6.785-21.968c-6.687-5.162-14.623-8.49-20.575-15.009
		c-3.052-3.343-9.394-3.719-14.281-5.337c-3.933-1.302-4.908-4.328-3.395-7.515c4.644-9.783,6.28-20.046,6.561-30.761
		c0.185-7.059-0.075-13.75,4.202-20.788c5.958-9.806,5.081-21.769,3.518-33.116c-1.101-7.994-1.439-16.28-3.928-23.838
		c-2.207-6.699-6.853-12.611-10.55-18.794c-1.085-1.814-2.654-3.333-3.913-5.051c-1.787-2.44-3.406-4.507-7.177-3.543
		c-4.709,1.203-5.379-1.789-5.112-5.303C284.972,0.258,285.259,0,285.596,0h131.753C417.708,0,418,0.292,418,0.651v416.698
		c0,0.36-0.292,0.651-0.651,0.651c-138.899,0-277.798,0-416.697,0C0.292,418,0,417.708,0,417.349C0,278.45,0,139.551,0,0.651
		C0,0.292,0.292,0,0.651,0C66.93,0,133.21,0,199.489,0z M137.394,416.976c2.759-0.3,5.252-0.572,7.678-0.836
		c0.188-1.257,0.166-1.11,0.354-2.366c-2.493-1.078-4.976-2.152-7.411-3.205c-0.408-0.176-0.864,0.094-0.902,0.537l-0.453,5.244
		C136.632,416.676,136.986,417.021,137.394,416.976z"/>
	<path fill="#FFFFFF" d="M299.743,85.113c4.4,1.022,3.255,3.661,3.312,6.617c0.165,8.593,1.491,17.159,1.744,25.755
		c0.254,8.625-3.021,16.28-7.506,23.67c-2.609-3.681-4.793-6.673-6.882-9.729c-4.479-6.554-12.283-8.056-18.434-12.06
		c-1.648-1.073-4.165-0.761-6.253-1.221c-2.451-0.54-4.87-1.229-8.319-2.114c0.879,2.049,1.779,4.149,3.124,7.284
		c-3.887,0.572-7.868,2.101-11.497,1.501c-8.401-1.389-14.375,2.364-20.166,7.466c-3.485-1.657-5.468-4.046-3.223-7.984
		c-2.023-2.809-7.134-1.66-7.317-6.296c-8.678-1.19-7.842-7.773-7.951-13.883c-0.009-0.49-0.779-1.022-1.276-1.439
		c-8.993-7.573-5.105-16.572-2.772-25.357c3.043-11.458,6.278-22.866,9.246-34.343c1.913-7.399,2.792-15.151,5.491-22.227
		c1.589-4.166,5.427-7.122,11.234-7.255c5.477-0.125,11.024-2.089,16.319-3.892c5.814-1.979,10.825,0.371,16.123,1.751
		c5.456,1.422,10.336,4.287,16.803,2.599c3.485-0.91,8.482,2.109,12.217,4.331c18.882,11.23,18.013,30.028,17.739,48.372
		c-0.022,1.493-2.488,3.93-4.144,4.252c-8.038,1.562-11.355,8.871-16.991,13.291c-2.378,1.866-1.582,4.705,0.629,5.858
		c2.171,1.132,5.311,3.122,7.298-0.696C298.956,88.087,299.244,86.615,299.743,85.113z M245.501,66.298
		c-0.053,0.704-0.105,1.408-0.158,2.112c6.366-4.377,11.955-1.326,17.494,1.342c4.125,1.987,6.845,1.015,8.454-3.22
		c-5.652-6.874-23.269-8.312-32.281-2.663C241.185,64.682,243.343,65.49,245.501,66.298z M234.673,78.784
		c0.157,0.577,0.315,1.153,0.472,1.73c1.732-0.097,3.477-0.095,5.192-0.323c1.248-0.166,3.021-1.326,3.594-0.858
		c5.386,4.392,8.627,1.865,11.079-3.574c3.997,1.855,7.656,3.553,12.18,5.653c-1.538-4.774-3.917-7.192-7.824-7.053
		c-6.088,0.216-12.189,0.702-18.223,1.528C238.896,76.195,236.824,77.78,234.673,78.784z"/>
	<path fill="#FFFFFF" d="M182.079,327.987c2.745-1.301,4.02-1.905,5.831-2.763c-3.892,11.126-7.604,21.739-11.439,32.703
		c-2.615-0.42-5.185-0.832-8.247-1.324c7.536-30.231,16.68-59.966,15.966-91.437c-0.568,5.862-0.962,11.748-1.754,17.581
		c-0.804,5.919-1.74,11.845-3.097,17.657c-1.39,5.951-3.359,11.767-4.895,17.023c-5.765-2.131-11.327-4.679-17.156-6.203
		c-5.852-1.53-11.97-2.038-19.204-3.19c5.869-3.132,11.036-1.971,15.97-1.242c3.339,0.493,6.496,2.139,9.79,3.071
		c1.117,0.316,2.406,0.023,3.616,0.009c-0.201-0.988-0.636-2-0.542-2.959c0.106-1.078,0.689-2.109,1.064-3.16
		c0.587,0.098,1.175,0.197,1.762,0.295c-0.649-2.183-1.299-4.366-2.208-7.422c1.481,0.846,2.478,1.415,3.781,2.159
		c1.848-10.461,0.524-21.398,4.21-31.542c-2.936,0.346-6.668,0.786-10.4,1.226c-0.041-0.263-0.082-0.525-0.123-0.788
		c3.643-0.678,7.286-1.356,11.584-2.156c-0.457-4.746,3.262-9.81-3.226-15.083c3.556,0.788,5.557,1.232,8.273,1.834
		c0.813-15.933,1.887-31.682,2.245-47.447c0.098-4.315-1.929-8.684-3.02-13.018c-3.578-14.212-7.237-28.46-4.39-43.262
		c0.867-4.507,2.869-8.796,5.075-13.007c-0.622,14.942-2.387,29.79,8.377,42.063c0.436-0.146,0.872-0.292,1.309-0.438
		c-0.845-1.573-1.85-3.083-2.496-4.734c-0.968-2.474-4.047-4.699-1.06-7.841c0.326-0.343-0.36-1.867-0.83-2.7
		c-0.958-1.699-2.089-3.3-3.149-4.942c0.426-0.194,0.852-0.389,1.278-0.583c2.879,1.863,5.758,3.726,9.518,6.158
		c-1.858,0.202-2.749,0.298-3.65,0.396c0.943,9.149,8.944,13.1,13.476,19.504c4.742,6.7,13.05,8.913,17.743,15.438
		c1.183,1.645,2.568,3.144,4.326,5.274c12.624-6.029,23.549-16.716,39.4-18.117c-3.49,13.963,2.145,30.068-10.448,41.788
		c-8.075-7.658-16.055-15.226-23.677-22.454c-4.233,1.873-8.265,4.052-12.55,5.463c-7.118,2.345-9.127,6.108-6.717,13.075
		c1.733,5.008,3.076,10.152,4.528,15.255c0.158,0.556-0.025,1.266-0.212,1.853c-4.799,15.152-9.499,30.337-14.482,45.428
		c-2.864,8.672-5.858,17.335-9.46,25.714c-1.706,3.967-5.032,7.225-7.512,10.879C184.269,323.479,183.579,325.14,182.079,327.987z"
		/>
	<path fill="#FFFFFF" d="M225.628,348.997c-2.033,6.514-2.7,12.756-7.747,18.865c-0.373-2.886-0.546-4.218-0.91-7.033
		c-0.701,3.172-1.097,4.962-1.443,6.526c1.717,1.917,3.328,3.717,5.255,5.869c2.843-0.891,7.582-0.922,8.864-3.043
		c4.368-7.225,11.308-4.048,17.026-5.589c1.988-0.536,4.014-1.394,5.677-2.587c5.456-3.917,10.027-2.094,10.987,3.009
		c-3.354,4.808-5.631,9.007-8.811,12.344c-2.648,2.778-6.132,5.043-9.654,6.629c-4.152,1.871-8.715,2.882-13.171,3.98
		c-0.806,0.198-1.951-0.984-2.322-2.499c-2.731,0.723-5.461,1.447-8.07,2.138c-1.028,2.579-1.451,6.882-3.261,7.578
		c-5.648,2.17-11.794,3.151-17.829,4.024c-0.573,0.083-2.537-3.849-2.466-5.869c0.323-9.277,1.139-18.536,1.805-28.193
		c3.29,0.518,6.606,1.04,10.294,1.621c1.044-4.18,2.482-8.23,2.982-12.393c0.57-4.755,2.825-6.178,7.248-5.42
		C221.659,349.224,223.322,348.997,225.628,348.997z"/>
	<path fill="#FFFFFF" d="M236.349,337.416c1.375,2.404,3.094,4.006,2.951,5.419c-0.457,4.51-1.53,8.966-2.53,13.406
		c-0.315,1.398-1.756,2.739-1.634,4.004c0.384,3.957-2.611,4.235-4.819,4.102c-2.737-0.164-4.748-1.81-4.303-5.325
		c1.314-10.379,2.612-20.766,3.589-31.181c2.607-27.787,6.318-55.517,4.168-83.563c-0.255-3.323,1.287-6.757,1.774-10.171
		c0.514-3.607,1.025-7.25,1.051-10.881c0.024-3.327,0.682-5.87,4.518-6.831c5.673,5.285,5.324,12.352,3.884,18.845
		c-5.65,25.487-7.131,51.314-7.385,77.28c-0.037,3.817,0.351,7.636,0.454,11.457c0.068,2.493,0.232,5.027-0.115,7.476
		C237.608,333.889,236.679,336.243,236.349,337.416z"/>
	<path fill="#FFFFFF" d="M248.127,148.628c-0.819-1.214-1.409-2.004-1.908-2.848c-0.928-1.567-1.804-3.166-2.702-4.751
		c1.953-0.554,3.875-1.377,5.865-1.604c4.056-0.463,8.239-0.164,12.207-0.974c7.577-1.547,14.25,2.351,17.367,10.952
		c-4.539,3.045-9.139,0.436-13.566-0.155C259.756,148.493,254.358,145.007,248.127,148.628z"/>
	<path fill="#FFFFFF" d="M129.642,328.754c-0.888-2.066-1.704-3.966-2.724-6.34c4.713,0.073,5.772,1.77,4.859,5.364
		c-0.997,3.926,0.533,6.004,4.88,5.534c5.763-0.624,11.55-1.04,17.301-1.755c1.024-0.127,1.921-1.271,3.533-2.409
		c2.556,1.215,2.556,1.215,16.1-2.847c-7.614,8.041-32.506,9.547-50,6.255c-0.171-1.517-0.35-3.113-0.532-4.731
		C125.583,333.052,126.296,333.112,129.642,328.754z"/>
	<path fill="#FFFFFF" d="M310.006,87.353c-4.762-2.752-7.716-4.459-10.67-6.167c0.007-0.53,0.013-1.061,0.02-1.591
		c3.318-0.024,6.698-0.374,9.899,0.226C309.839,79.931,309.699,83.909,310.006,87.353z"/>
	<path fill="#FFFFFF" d="M134.359,304.035c0.37,0.474,1.404,1.796,2.714,3.471c-3.538,2.574-7.429,1.918-11.299,1.173
		c-0.317-0.061-0.503-0.803-0.75-1.228c0.526-0.3,1.021-0.691,1.583-0.883C129.015,305.745,131.444,304.981,134.359,304.035z"/>
	<path fill="#FFFFFF" d="M180.158,61.041c0.981,0.481,2.33,0.706,2.854,1.485c1.281,1.908,2.181,4.072,3.235,6.133
		c-0.848,0.053-1.906,0.459-2.512,0.101C179.226,66.101,178.524,64.576,180.158,61.041z"/>
	<path fill="#FFFFFF" d="M153.339,326.166c-5.03,4.418-11.1-5.449-15.314,3.105c-0.352-1.42-0.662-2.668-1.314-5.3
		C142.622,324.751,147.981,325.458,153.339,326.166z"/>
	<path fill="#FFFFFF" d="M271.519,371.984c-0.647,1.5-0.981,3.277-2.008,4.442c-2.144,2.433-4.655,4.544-7.538,6.691
		c2.556-3.889,5.112-7.778,7.669-11.667C270.268,371.629,270.893,371.807,271.519,371.984z"/>
	<path fill="#FFFFFF" d="M151.216,268.814c3.13-0.371,6.261-0.743,9.391-1.114c-2.33,4.591-5.741,3.577-9.095,2.85
		C151.414,269.972,151.315,269.393,151.216,268.814z"/>
	<path d="M136.974,417.063c0.273-3.163,0.471-5.452,0.592-6.85c3.32,1.436,6.739,2.915,10.158,4.394
		c0.057,0.423,0.114,0.846,0.172,1.268C144.45,416.249,141.004,416.624,136.974,417.063z"/>
	<path d="M245.501,66.298c-2.158-0.808-4.316-1.615-6.49-2.429c9.011-5.649,26.629-4.211,32.281,2.663
		c-1.609,4.235-4.33,5.207-8.454,3.22c-5.539-2.668-11.128-5.719-17.494-1.342C245.396,67.706,245.449,67.002,245.501,66.298z"/>
	<path d="M234.673,78.784c2.152-1.003,4.224-2.589,6.471-2.897c6.033-0.826,12.134-1.313,18.223-1.528
		c3.908-0.139,6.286,2.279,7.824,7.053c-4.524-2.1-8.183-3.798-12.18-5.653c-2.452,5.439-5.693,7.966-11.079,3.574
		c-0.573-0.467-2.346,0.693-3.594,0.858c-1.715,0.227-3.46,0.226-5.192,0.323C234.987,79.937,234.83,79.36,234.673,78.784z"/>
</g>
</svg>